<svg xmlns="http://www.w3.org/2000/svg" viewBox="0 0 455.45 113.38"><defs><style>.cls-1,.cls-3,.cls-4{fill:#fff;}.cls-1,.cls-2,.cls-4,.cls-5{stroke:#000;}.cls-1{stroke-miterlimit:10;stroke-width:3px;}.cls-2{fill:none;}.cls-2,.cls-4,.cls-5{stroke-linecap:round;stroke-linejoin:round;stroke-width:2px;}</style></defs><g id="レイヤー_2" data-name="レイヤー 2"><g id="レイヤー_1-2" data-name="レイヤー 1"><ellipse class="cls-1" cx="136.74" cy="95.38" rx="27.5" ry="16.5"/><polygon points="64.71 9.79 49.97 17.75 50.04 1 64.71 9.79"/><polygon class="cls-2" points="50.04 1 49.97 17.75 64.71 9.79 50.04 1"/><polygon class="cls-3" points="49.82 17.96 103.03 107.47 87.48 107.47 87.48 107.39 72.12 78.75 52.56 62.67 33 78.84 17.64 107.47 1 107.47 49.82 17.96"/><polygon points="87.48 107.39 87.48 107.47 17.64 107.47 52.56 62.67 87.48 107.39"/><polygon points="72.12 78.75 87.48 107.39 52.56 62.67 72.12 78.75"/><polygon points="52.56 62.67 17.64 107.47 33 78.84 52.56 62.67"/><polygon class="cls-2" points="87.48 107.47 103.03 107.47 49.82 17.96 1 107.47 17.64 107.47 87.48 107.47"/><polyline class="cls-2" points="52.56 62.67 33 78.84 17.64 107.47"/><polyline class="cls-2" points="52.56 62.67 72.12 78.75 87.48 107.39"/><path class="cls-4" d="M101.85,56.14c1,3.71,1.72,7.9,1,11.45"/><path class="cls-4" d="M101.2,76.26C91.33,45.68,140.2,6,140.2,6c-5.06,15.41,14,51.76,19.5,48.63s.48-20.7.48-20.7,23,38.93,11.07,65c-8.26,18.08-29.36,12-28.36,12,0,0,6.46.71,5-10.37S134.42,84.2,134.42,84.2c5.54,4.57-3.37,15.41-3.37,15.41-5.3,1-7.94-11.56-7.94-11.56-5.78,3.13-1.93,14-1.93,14-4.82.24-7.46-4.1-7.46-4.1-.73,8.43,17.17,13.43,17.17,13.43-7.46.48-19.66-.72-19.66-.72C99.6,112.73,88,109.24,88,109.24s-14.21,4.57-18.54-2.89,15.41-9.87,15.41-9.87c-1.45-8.91,7.22-18.06,7.22-18.06S81.94,87.09,75.2,85.2s1.92-7.74,1.92-7.74c3.61-2.65,7.95-13.63,7.95-13.63-9.38,5.45-15.5-2.91-18.19-8A6.57,6.57,0,0,1,67.31,49a19.84,19.84,0,0,1,17.76-8.4s4.57-12.52,7.22-11.32-2.17,11.56-2.17,11.56A10.13,10.13,0,0,1,94.94,43s2.21-9.66,6.64-10.94a1.06,1.06,0,0,1,1.36,1A19.46,19.46,0,0,1,98.07,46.4a57.33,57.33,0,0,1,3.78,9.74"/><circle class="cls-5" cx="85.66" cy="48.2" r="1.32"/><circle class="cls-5" cx="67.37" cy="52.54" r="1.08"/><path class="cls-5" d="M113.75,109.93c-2.5-.38-3.09.28-5.08-2.46-5.45-7.5-19.58-44.66,5-73.53C143.44-.93,140.2,6,140.2,6s-3.6,14.85,9,37.73,13.05,4.51,13.05,4.51a43.22,43.22,0,0,0-2.09-14.31s22,38.61,11.69,63.28c-7.87,18.79-24.71,11.07-29,13.77,0,0,18-11.83-8.47-26.74,0,0,6.06,3.45-3.37,15.41,0,0-3.74,2.43-7.94-11.56,0,0-5.78,3-1.93,14,0,0-7.43-2.14-7.46-4.1.31,3.53,2.06,12,15.16,13a.11.11,0,0,1,0,.21C127.22,111.27,123,111.35,113.75,109.93Z"/><path d="M222,75.77h-7.74L195.28,40V74.72h3v1h-7.57v-1h3V38.12h-3v-1H206l14.48,27.76V38.12h-3v-1H225v1h-3Z"/><path d="M241.72,48.9c9.29,0,13.71,4.37,13.71,13.33s-4.2,14.09-14,14.09c-9.29,0-14-5-14-13.6C227.41,53.66,232.82,48.9,241.72,48.9Zm3.1,11.28c0-6-.17-10.28-3.26-10.28-3.37,0-3.54,4.31-3.54,10.56v4.31c0,6.41.11,10.56,3.48,10.56,3.15,0,3.32-3.26,3.32-10.45Z"/><path d="M270.31,60V74.78h3.92v1H257v-1h3V50.45h-3v-1h13.33v5.3a7.41,7.41,0,0,1,7.4-5.86c3.27,0,5.86,1.72,5.86,5.92,0,3.15-1.65,5.25-4.64,5.25-3.7,0-5.47-2.32-4.31-6.25h2c1.1-2.26,0-2.81-1.16-2.81C272.79,51,270.31,55,270.31,60Z"/><path d="M302.54,71.9c-1.16,2.77-3.32,4.42-7.63,4.42-6.14,0-10-4.36-10-13.65s3.87-13.77,11-13.77c3.43,0,5.42,1,6.41,2.71V35.31h-3.37v-1h13.82V74.78h2.71v1H303.15Zm-.11-3.65v-12c0-3-1.16-5.69-3.6-5.69-2.71,0-3.26,3.26-3.26,10.94v2.88c0,7.79.66,9.62,3,9.62C300.21,74,302.43,72.4,302.43,68.25Z"/><path d="M330.18,49.46V74.78h3.1v1H316.86v-1h3V50.45h-3.26v-1Zm-5-14.1c3.43,0,5.48,1.71,5.48,5.09,0,2.93-1.61,5.19-5.59,5.19-4.47,0-5.52-2.82-5.52-5.14C319.57,37.79,321.06,35.36,325.2,35.36Z"/><path d="M347.82,49.46v5.08c.94-2.76,2.76-5.64,8.23-5.64,5.14,0,8.57,2.55,8.57,9.24V74.78h3.1v1H352.07v-1h2.27v-18c0-4.7-.66-5.25-2-5.25-2.32,0-4.47,3.48-4.47,8V74.78h2.37v1h-15.7v-1h3V50.45h-3v-1Z"/><path d="M383.31,62.78V58.52c0-7-.61-8.84-2.82-8.84a2.31,2.31,0,0,0-2.6,2.21,4.85,4.85,0,0,0,.33,1.6h1.38a6.41,6.41,0,0,1,.45,2.49c0,2.6-2.1,4.31-4.87,4.31-3.43,0-4.75-1.88-4.75-4.59,0-4.64,4-6.8,11.55-6.8,8.68,0,11.61,2.44,11.61,10.45V70.58c0,2.26.66,2.87,1.6,2.87s1.94-1,2.22-5.69l.82,0c-.27,6.63-2.32,8.51-7.07,8.51-4.48,0-7-1.38-7.63-4.09-.89,2.66-2.49,4.09-6.36,4.09S369,75.16,369,69.64s4.81-6.86,12.71-6.86Zm0,6V63.67h-.39c-2.32,0-3.43,1.65-3.43,5v.88c0,4,.39,4.53,1.44,4.53S383.31,72.34,383.31,68.81Z"/><path d="M412.11,60V74.78H416v1H398.79v-1h3V50.45h-3v-1h13.32v5.3a7.43,7.43,0,0,1,7.41-5.86c3.26,0,5.86,1.72,5.86,5.92,0,3.15-1.66,5.25-4.64,5.25-3.71,0-5.48-2.32-4.32-6.25h2c1.11-2.26,0-2.81-1.16-2.81C414.6,51,412.11,55,412.11,60Z"/><path d="M425.88,49.46h16v1h-3l6,18.36,6.41-18.36h-3.7v-1h7.79v1h-2.76l-10.34,29.8c-2.48,7.13-5.36,9.34-9.73,9.34-4.14,0-6.91-2.1-6.91-5.58a4.17,4.17,0,0,1,4.43-4.48c2.81,0,4.58,1.22,4.58,3.82a7.52,7.52,0,0,1-.33,2h-1.93c-.56,1.65-.22,2.93,1.38,2.93,3.1,0,5.31-3.1,7.41-9.07l1.21-3.43H437.6l-9.45-25.32h-2.27Z"/><path d="M191.34,94.39c-.05,0-.07,0-.07-.14s0-.12.07-.12h.11a1,1,0,0,0,.71-.3,1.06,1.06,0,0,0,.32-.84V86.66a1.78,1.78,0,0,0-.44-.59,1.29,1.29,0,0,0-.55-.27h-.09l-.06,0-.05,0a.14.14,0,0,1,0-.11c0-.09,0-.13.08-.13h2.53c.06,0,.1,0,.11.06l4.35,6.3v-5a1.08,1.08,0,0,0-.32-.83,1.11,1.11,0,0,0-.72-.3h-.1c-.06,0-.09,0-.09-.13s0-.13.09-.13H200c.05,0,.08,0,.08.13s0,.13-.08.13h-.12a1,1,0,0,0-1,1.13v7.39a.09.09,0,0,1-.1.1H198a.11.11,0,0,1-.1-.06L193,87.21V93a1.09,1.09,0,0,0,.32.84,1,1,0,0,0,.71.3h.11q.09,0,.09.12c0,.09,0,.14-.09.14Z"/><path d="M202.38,94.11A2.91,2.91,0,0,1,201.29,93a3.15,3.15,0,0,1,0-3,3,3,0,0,1,1.09-1.13,3.19,3.19,0,0,1,3.2,0A3,3,0,0,1,206.67,90a3.15,3.15,0,0,1,0,3,2.91,2.91,0,0,1-1.09,1.14,3.13,3.13,0,0,1-3.2,0Zm2.67-.67a4.68,4.68,0,0,0,.38-2,4.55,4.55,0,0,0-.38-2,1.12,1.12,0,0,0-2.14,0,4.55,4.55,0,0,0-.37,2,4.68,4.68,0,0,0,.37,2,1.11,1.11,0,0,0,2.14,0Z"/><path d="M212.88,88.69a.86.86,0,0,1,.31.66.65.65,0,0,1-.19.48.69.69,0,0,1-.5.19.69.69,0,0,1-.36-.09,1.77,1.77,0,0,1-.36-.26,1.72,1.72,0,0,0-.3-.23.6.6,0,0,0-.29-.08.64.64,0,0,0-.5.3,2.65,2.65,0,0,0-.4.79v3.06a.58.58,0,0,0,.17.49.86.86,0,0,0,.5.11h.13q.09,0,.09.15c0,.09,0,.13-.09.13h-3.15c-.06,0-.09,0-.09-.13s0-.15.09-.15h.12a.86.86,0,0,0,.5-.11.58.58,0,0,0,.17-.49v-3.7a.61.61,0,0,0-.17-.51,1,1,0,0,0-.56-.14.13.13,0,0,1-.09-.07.5.5,0,0,1,0-.12.08.08,0,0,1,.07-.09l2-.39.26,0h0a.07.07,0,0,1,.08.08v1.29a3,3,0,0,1,.79-1,1.5,1.5,0,0,1,1-.38A1.22,1.22,0,0,1,212.88,88.69Z"/><path d="M220.59,94.14a.12.12,0,0,1-.09.12l-1,.13c-.47.06-.91.1-1.32.14h0s-.07,0-.07-.08v-.61a2.67,2.67,0,0,1-1.84.71,2.18,2.18,0,0,1-1.27-.41A3,3,0,0,1,214,93a3.77,3.77,0,0,1-.34-1.65,3.24,3.24,0,0,1,.34-1.5,2.75,2.75,0,0,1,.91-1,2.14,2.14,0,0,1,1.23-.39,2.66,2.66,0,0,1,1.87.76V86.78a.64.64,0,0,0-.16-.51,1.08,1.08,0,0,0-.56-.15.08.08,0,0,1-.08-.06.35.35,0,0,1,0-.12.08.08,0,0,1,.07-.08s.33-.08.85-.18l1.37-.27h0s.08,0,.08.09v7.89a.57.57,0,0,0,.13.39.68.68,0,0,0,.41.18h.29A.15.15,0,0,1,220.59,94.14Zm-3.15-.27a2.4,2.4,0,0,0,.63-.48l0-3.76a2.25,2.25,0,0,0-.64-.51,1.4,1.4,0,0,0-.71-.2,1,1,0,0,0-.62.22,1.72,1.72,0,0,0-.51.77,4.26,4.26,0,0,0-.21,1.48,4.15,4.15,0,0,0,.39,1.9,1.17,1.17,0,0,0,1,.75A1.54,1.54,0,0,0,217.44,93.87Z"/><path d="M221.34,94.39c-.05,0-.08,0-.08-.14s0-.14.08-.14h.13A1,1,0,0,0,222,94a.53.53,0,0,0,.2-.49V89.82a.61.61,0,0,0-.17-.51.93.93,0,0,0-.57-.15c-.07,0-.1-.06-.1-.18s0-.09.07-.1l2.22-.44h0c.06,0,.09,0,.09.08v5c0,.25.06.41.19.49a1.1,1.1,0,0,0,.55.11h.13c.06,0,.09,0,.09.14s0,.14-.09.14Zm.9-7.4a.93.93,0,0,1-.27-.66.95.95,0,0,1,1.61-.68.91.91,0,0,1,.28.68.9.9,0,0,1-.28.66,1,1,0,0,1-1.34,0Z"/><path d="M227.1,94.21a2.83,2.83,0,0,1-1.14-1,3,3,0,0,1-.44-1.65,3.37,3.37,0,0,1,.35-1.47,3,3,0,0,1,1-1.2,2.94,2.94,0,0,1,1.66-.47,3.54,3.54,0,0,1,1.42.25,1.83,1.83,0,0,1,.78.59,1.09,1.09,0,0,1,.23.62.68.68,0,0,1-.2.52.63.63,0,0,1-.46.21.75.75,0,0,1-.52-.2,1.9,1.9,0,0,1-.39-.55A5,5,0,0,0,229,89a.65.65,0,0,0-.54-.27c-.36,0-.65.25-.88.74a4.77,4.77,0,0,0-.34,2,3,3,0,0,0,.5,1.91,1.49,1.49,0,0,0,1.2.61,2.09,2.09,0,0,0,1.84-1,.12.12,0,0,1,.09-.06.16.16,0,0,1,.09,0,.11.11,0,0,1,.08.1.15.15,0,0,1,0,.08,2.92,2.92,0,0,1-.95,1,2.72,2.72,0,0,1-1.5.41A3.33,3.33,0,0,1,227.1,94.21Z"/><path d="M242,93.2a.11.11,0,0,1,.05.09.21.21,0,0,1-.05.09,2.72,2.72,0,0,1-2.27,1.18,3.12,3.12,0,0,1-1.79-.58,5.43,5.43,0,0,1-2.49.55,3.85,3.85,0,0,1-1.6-.29,2.28,2.28,0,0,1-1-.79,1.86,1.86,0,0,1-.33-1.08,2.1,2.1,0,0,1,.64-1.51A7.46,7.46,0,0,1,235,89.63a5,5,0,0,1-.47-2,2.31,2.31,0,0,1,.3-1.16,2.18,2.18,0,0,1,.82-.83,2.39,2.39,0,0,1,1.21-.3,3.22,3.22,0,0,1,1.16.2,2.07,2.07,0,0,1,.87.57,1.26,1.26,0,0,1,.33.87,1.42,1.42,0,0,1-.59,1.15,8.73,8.73,0,0,1-1.76,1l.41.78.09.17a1,1,0,0,0,.08.15A13.37,13.37,0,0,0,239,92.63a4,4,0,0,0,.66-1,2.64,2.64,0,0,0,.24-1,.93.93,0,0,0-.29-.73,1.21,1.21,0,0,0-.83-.25c-.06,0-.1,0-.1-.15s0-.13.1-.13h3c.06,0,.09,0,.09.13s0,.15-.09.15a1.25,1.25,0,0,0-1.32,1.09A5.28,5.28,0,0,1,239.25,93a2.13,2.13,0,0,0,1.35.86,1.13,1.13,0,0,0,.6-.17,2.5,2.5,0,0,0,.57-.46.14.14,0,0,1,.09,0A.16.16,0,0,1,242,93.2Zm-4.52.43a8.55,8.55,0,0,1-1.82-2.55l-.15-.31c-.22-.44-.34-.68-.36-.74a2.15,2.15,0,0,0-.72.73,1.79,1.79,0,0,0-.21.88,2.12,2.12,0,0,0,.61,1.57,2.18,2.18,0,0,0,1.58.59A3.2,3.2,0,0,0,237.45,93.63Zm-1.16-7.52a1.36,1.36,0,0,0-.25.83,4.73,4.73,0,0,0,.58,1.82,3.61,3.61,0,0,0,1-.83,1.58,1.58,0,0,0,.32-1,1.25,1.25,0,0,0-.26-.83.9.9,0,0,0-.76-.33A.78.78,0,0,0,236.29,86.11Z"/><path d="M251.77,92a.84.84,0,0,1-.06.18l-.78,2.11c0,.05,0,.07-.1.07h-7.17c-.06,0-.09,0-.09-.14s0-.12.09-.12h.13c.67,0,1-.35,1-1V86.81c0-.69-.33-1-1-1h-.13c-.06,0-.09,0-.09-.14s0-.12.09-.12h6.91a.11.11,0,0,1,.11.07l.49.89c.16.3.28.52.34.66v.05a.09.09,0,0,1-.07.09l-.08,0a.12.12,0,0,1-.11,0,5.19,5.19,0,0,0-1.38-1,4,4,0,0,0-1.75-.44h-.21a5,5,0,0,0-.76,0,.75.75,0,0,0-.43.2.7.7,0,0,0-.15.5v3h1.8a1,1,0,0,0,.81-.38,1.21,1.21,0,0,0,.3-.8.1.1,0,0,1,0-.07h.22a.09.09,0,0,1,0,.07V91.2a.06.06,0,0,1,0,.06s-.06,0-.11,0-.09,0-.11,0a.07.07,0,0,1,0-.06,1.23,1.23,0,0,0-.3-.81,1,1,0,0,0-.81-.37h-1.8v3.26a.6.6,0,0,0,.25.57,1.86,1.86,0,0,0,.82.19h.73a2.91,2.91,0,0,0,1.81-.67,7.19,7.19,0,0,0,1.32-1.43.13.13,0,0,1,.11-.05l.08,0C251.75,91.92,251.77,92,251.77,92Z"/><path d="M259.39,94.25c0,.09,0,.14-.08.14h-3.22c-.06,0-.09,0-.09-.14s0-.14.11-.14a.86.86,0,0,0,.37-.1.26.26,0,0,0,.14-.23.39.39,0,0,0-.11-.25l-1.08-1.44-1,1.2a.64.64,0,0,0-.18.4.35.35,0,0,0,.21.32,1.22,1.22,0,0,0,.49.12c.05,0,.08,0,.08.12s0,.14-.08.14h-2.45c-.06,0-.1,0-.1-.14a.13.13,0,0,1,0-.09.24.24,0,0,1,.1,0l.08,0a2.46,2.46,0,0,0,1.34-.91l1.24-1.44-1.8-2.38A2.67,2.67,0,0,0,253,89a1,1,0,0,0-.47-.13s-.08,0-.08-.14,0-.13.08-.13h3.07c.07,0,.1,0,.1.13s0,.14-.11.14a.9.9,0,0,0-.38.12.26.26,0,0,0-.15.23.42.42,0,0,0,.1.22l1,1.29q.68-.77.93-1.08a.79.79,0,0,0,.17-.38.32.32,0,0,0-.22-.3,1.34,1.34,0,0,0-.53-.11c-.05,0-.08,0-.08-.13s0-.13.08-.13h2.45c.06,0,.08,0,.08.13s0,.08,0,.09l-.09,0h-.08a1.83,1.83,0,0,0-.64.27,4.77,4.77,0,0,0-.72.68L256.36,91c1.05,1.36,1.69,2.16,1.92,2.41a3.27,3.27,0,0,0,.56.55,1,1,0,0,0,.47.13C259.37,94.11,259.39,94.16,259.39,94.25Z"/><path d="M261.21,94.07a2.07,2.07,0,0,1-.46-1.38V89h-1c-.07,0-.1,0-.1-.09v-.23a.09.09,0,0,1,.09-.1,3.11,3.11,0,0,0,1.46-.73,3,3,0,0,0,.83-1.65q0-.09.09-.09h.06c.07,0,.1,0,.1.1v2.39h1.4c.07,0,.1,0,.1.09v.22c0,.06,0,.09-.1.09h-1.4l0,2.72c0,.53,0,.85,0,1a1.57,1.57,0,0,0,.26.94.73.73,0,0,0,.59.26.82.82,0,0,0,.42-.11,1.88,1.88,0,0,0,.43-.35.16.16,0,0,1,.11-.07.21.21,0,0,1,.16.14.13.13,0,0,1,0,.07,2.25,2.25,0,0,1-.8.8,2,2,0,0,1-1,.24A1.59,1.59,0,0,1,261.21,94.07Z"/><path d="M269.61,88.69a.87.87,0,0,1,.32.66.66.66,0,0,1-.2.48.68.68,0,0,1-.5.19.74.74,0,0,1-.36-.09,2.58,2.58,0,0,1-.36-.26,1.72,1.72,0,0,0-.3-.23.54.54,0,0,0-.28-.08.64.64,0,0,0-.51.3,2.91,2.91,0,0,0-.39.79v3.06c0,.25.05.41.16.49a.9.9,0,0,0,.51.11h.13c.06,0,.08,0,.08.15s0,.13-.08.13h-3.16c-.05,0-.08,0-.08-.13s0-.15.08-.15h.12a.88.88,0,0,0,.51-.11.58.58,0,0,0,.17-.49v-3.7a.61.61,0,0,0-.17-.51,1,1,0,0,0-.57-.14.11.11,0,0,1-.08-.07.25.25,0,0,1,0-.12.08.08,0,0,1,.07-.09l1.95-.39.27,0h0c.06,0,.09,0,.09.08v1.29a2.89,2.89,0,0,1,.78-1,1.53,1.53,0,0,1,1-.38A1.2,1.2,0,0,1,269.61,88.69Z"/><path d="M276.82,93.32a.09.09,0,0,1,0,.07v.06a1.48,1.48,0,0,1-.54.77,1.38,1.38,0,0,1-.85.3,1.13,1.13,0,0,1-1.18-.79,3.28,3.28,0,0,1-1,.62,3.36,3.36,0,0,1-1.14.21,1.75,1.75,0,0,1-1.18-.36,1.17,1.17,0,0,1-.43-1,1.66,1.66,0,0,1,1.06-1.49,3,3,0,0,1,.62-.23c.22-.06.52-.12.9-.19a10.76,10.76,0,0,0,1.12-.24v-.54c0-.49,0-.83,0-1A.9.9,0,0,0,274,89a.83.83,0,0,0-1.16-.1,1.53,1.53,0,0,0-.36.8,1.29,1.29,0,0,1-.35.66.73.73,0,0,1-.53.22.88.88,0,0,1-.53-.17.59.59,0,0,1-.23-.49,1.38,1.38,0,0,1,.19-.59,1.61,1.61,0,0,1,.74-.65,3.4,3.4,0,0,1,1.57-.3,2.7,2.7,0,0,1,2.08.72,1.29,1.29,0,0,1,.29.54,2.92,2.92,0,0,1,.08.72v1.32c0,.27,0,.68,0,1.23a1.38,1.38,0,0,0,.11.68.34.34,0,0,0,.29.15.5.5,0,0,0,.29-.11.89.89,0,0,0,.27-.3.12.12,0,0,1,.09-.06Zm-3.21.44a2.15,2.15,0,0,0,.58-.34,4.83,4.83,0,0,1-.05-.71V91.39a4.1,4.1,0,0,0-1.58.71,1.33,1.33,0,0,0-.49,1,.65.65,0,0,0,.25.54,1.07,1.07,0,0,0,.67.19A1.68,1.68,0,0,0,273.61,93.76Z"/><path d="M278.8,94.11A2.89,2.89,0,0,1,277.72,93a3.08,3.08,0,0,1,0-3,2.93,2.93,0,0,1,1.08-1.13,3.1,3.1,0,0,1,1.61-.43,3.06,3.06,0,0,1,1.6.43A2.86,2.86,0,0,1,283.09,90a3.08,3.08,0,0,1,0,3A2.82,2.82,0,0,1,282,94.11a3,3,0,0,1-1.6.44A3,3,0,0,1,278.8,94.11Zm2.68-.67a4.68,4.68,0,0,0,.38-2,4.55,4.55,0,0,0-.38-2,1.12,1.12,0,0,0-2.14,0,4.55,4.55,0,0,0-.37,2,4.68,4.68,0,0,0,.37,2,1.11,1.11,0,0,0,2.14,0Z"/><path d="M289.3,88.69a.84.84,0,0,1,.32.66.62.62,0,0,1-.2.48.67.67,0,0,1-.49.19.69.69,0,0,1-.36-.09,2.13,2.13,0,0,1-.37-.26,2.2,2.2,0,0,0-.29-.23.6.6,0,0,0-.29-.08.65.65,0,0,0-.51.3,2.91,2.91,0,0,0-.39.79v3.06c0,.25,0,.41.17.49a.86.86,0,0,0,.5.11h.13q.09,0,.09.15c0,.09,0,.13-.09.13h-3.15c-.06,0-.09,0-.09-.13s0-.15.09-.15h.12A.86.86,0,0,0,285,94a.58.58,0,0,0,.17-.49v-3.7a.61.61,0,0,0-.17-.51,1,1,0,0,0-.56-.14.13.13,0,0,1-.09-.07.5.5,0,0,1,0-.12.08.08,0,0,1,.07-.09l2-.39.26,0h0c.06,0,.09,0,.09.08v1.29a3,3,0,0,1,.78-1,1.53,1.53,0,0,1,1-.38A1.2,1.2,0,0,1,289.3,88.69Z"/><path d="M297,94.14a.11.11,0,0,1-.08.12l-1,.13c-.47.06-.91.1-1.32.14h0c-.05,0-.08,0-.08-.08v-.61a2.65,2.65,0,0,1-1.83.71,2.18,2.18,0,0,1-1.27-.41,2.79,2.79,0,0,1-.93-1.14,3.77,3.77,0,0,1-.35-1.65,3.37,3.37,0,0,1,.34-1.5,2.77,2.77,0,0,1,.92-1,2.14,2.14,0,0,1,1.23-.39,2.67,2.67,0,0,1,1.87.76V86.78a.64.64,0,0,0-.16-.51,1.08,1.08,0,0,0-.56-.15.1.1,0,0,1-.09-.06.74.74,0,0,1,0-.12s0-.07.07-.08.32-.08.85-.18l1.37-.27h0c.05,0,.08,0,.08.09v7.89a.53.53,0,0,0,.13.39.68.68,0,0,0,.41.18h.29C297,94,297,94,297,94.14Zm-3.14-.27a2.2,2.2,0,0,0,.62-.48l0-3.76a2.25,2.25,0,0,0-.64-.51,1.43,1.43,0,0,0-.72-.2,1,1,0,0,0-.61.22,1.72,1.72,0,0,0-.51.77,4.26,4.26,0,0,0-.21,1.48,4.15,4.15,0,0,0,.39,1.9,1.17,1.17,0,0,0,1.05.75A1.54,1.54,0,0,0,293.87,93.87Z"/><path d="M297.77,94.39c-.06,0-.08,0-.08-.14s0-.14.08-.14h.13a1,1,0,0,0,.54-.11c.13-.08.19-.24.19-.49V89.82c0-.26-.05-.43-.16-.51a1,1,0,0,0-.57-.15c-.07,0-.11-.06-.11-.18a.09.09,0,0,1,.08-.1l2.22-.44h0c.06,0,.08,0,.08.08v5a.53.53,0,0,0,.2.49,1.05,1.05,0,0,0,.55.11h.13c.05,0,.08,0,.08.14s0,.14-.08.14Zm.9-7.4a.94.94,0,0,1-.28-.66,1,1,0,0,1,.28-.68.92.92,0,0,1,.67-.27.94.94,0,0,1,.67.27.91.91,0,0,1,.28.68A.9.9,0,0,1,300,87a.94.94,0,0,1-.67.27A.92.92,0,0,1,298.67,87Z"/><path d="M308.88,94.11q.09,0,.09.15c0,.09,0,.13-.09.13h-3.14c-.06,0-.09,0-.09-.13s0-.15.09-.15h.13a.83.83,0,0,0,.49-.11.58.58,0,0,0,.17-.49c0-.79,0-1.48,0-2.07,0-.42,0-.78,0-1.08a2.17,2.17,0,0,0-.25-1,.75.75,0,0,0-.71-.36c-.48,0-.91.33-1.28,1v3.52c0,.25,0,.41.16.49a.9.9,0,0,0,.51.11h.13c.06,0,.08,0,.08.15s0,.13-.08.13h-3.16c-.06,0-.09,0-.09-.13s0-.15.09-.15h.12a.88.88,0,0,0,.51-.11.58.58,0,0,0,.17-.49V89.82a.62.62,0,0,0-.17-.52,1,1,0,0,0-.57-.14c-.07,0-.1-.07-.1-.19a.08.08,0,0,1,.07-.09l2-.39.27,0h0c.06,0,.09,0,.09.08v1a2.49,2.49,0,0,1,.78-.77,1.88,1.88,0,0,1,1-.29,2.07,2.07,0,0,1,1.09.27,1.77,1.77,0,0,1,.67.69,2.14,2.14,0,0,1,.23.89v3.25a.58.58,0,0,0,.17.49.86.86,0,0,0,.5.11Z"/><path d="M316.16,93.32a.09.09,0,0,1,0,.07v.06a1.6,1.6,0,0,1-.54.77,1.4,1.4,0,0,1-.85.3,1.12,1.12,0,0,1-1.18-.79,3.22,3.22,0,0,1-1.06.62,3.36,3.36,0,0,1-1.14.21,1.79,1.79,0,0,1-1.18-.36,1.19,1.19,0,0,1-.42-1,1.66,1.66,0,0,1,1.05-1.49,2.93,2.93,0,0,1,.63-.23c.22-.06.52-.12.9-.19a10.53,10.53,0,0,0,1.11-.24v-.54c0-.49,0-.83,0-1a1.1,1.1,0,0,0-.18-.48.79.79,0,0,0-.64-.29.76.76,0,0,0-.52.19,1.6,1.6,0,0,0-.37.8,1.22,1.22,0,0,1-.34.66.74.74,0,0,1-.53.22.88.88,0,0,1-.53-.17.57.57,0,0,1-.23-.49,1.25,1.25,0,0,1,.19-.59,1.61,1.61,0,0,1,.74-.65,3.34,3.34,0,0,1,1.57-.3,2.68,2.68,0,0,1,2.07.72,1.31,1.31,0,0,1,.3.54,3,3,0,0,1,.07.72v1.32c0,.27,0,.68,0,1.23a1.38,1.38,0,0,0,.11.68.34.34,0,0,0,.29.15.53.53,0,0,0,.29-.11.89.89,0,0,0,.27-.3.09.09,0,0,1,.08-.06Zm-3.22.44a2.2,2.2,0,0,0,.59-.34,3.76,3.76,0,0,1,0-.71V91.39a4,4,0,0,0-1.58.71,1.34,1.34,0,0,0-.5,1,.66.66,0,0,0,.26.54,1,1,0,0,0,.67.19A1.59,1.59,0,0,0,312.94,93.76Z"/><path d="M321.57,88.69a.87.87,0,0,1,.32.66.66.66,0,0,1-.2.48.68.68,0,0,1-.5.19.74.74,0,0,1-.36-.09,2.58,2.58,0,0,1-.36-.26,1.72,1.72,0,0,0-.3-.23.54.54,0,0,0-.28-.08.64.64,0,0,0-.51.3,2.91,2.91,0,0,0-.39.79v3.06c0,.25.05.41.16.49a.9.9,0,0,0,.51.11h.13c.06,0,.08,0,.08.15s0,.13-.08.13h-3.16c-.05,0-.08,0-.08-.13s0-.15.08-.15h.12a.88.88,0,0,0,.51-.11.58.58,0,0,0,.17-.49v-3.7a.61.61,0,0,0-.17-.51,1,1,0,0,0-.57-.14.11.11,0,0,1-.08-.07.25.25,0,0,1,0-.12.08.08,0,0,1,.07-.09s.71-.15,1.95-.39l.27,0h0c.06,0,.09,0,.09.08v1.29a2.89,2.89,0,0,1,.78-1,1.53,1.53,0,0,1,1-.38A1.2,1.2,0,0,1,321.57,88.69Z"/><path d="M328.79,88.55c.06,0,.08,0,.08.13s0,.08,0,.09l-.1,0-.08,0a1.05,1.05,0,0,0-.52.3,2.93,2.93,0,0,0-.49.77l-1.13,2.41c-.46,1-.89,1.91-1.27,2.75a4.88,4.88,0,0,1-1,1.58,1.53,1.53,0,0,1-1,.46,1.4,1.4,0,0,1-.92-.26.78.78,0,0,1-.3-.59.63.63,0,0,1,.21-.5.71.71,0,0,1,.51-.2,1.18,1.18,0,0,1,.35,0,1.71,1.71,0,0,1,.31.15,1.19,1.19,0,0,0,.29.13,1,1,0,0,0,.31.05.54.54,0,0,0,.41-.2,3.9,3.9,0,0,0,.41-.67l.38-.79c-.21-.47-.46-1-.73-1.64L323,89.37a1.33,1.33,0,0,0-.32-.43.71.71,0,0,0-.45-.12c-.06,0-.09,0-.09-.14s0-.13.09-.13h2.93c.05,0,.08,0,.08.13s0,.13-.1.14a1,1,0,0,0-.39.12.28.28,0,0,0-.13.23.69.69,0,0,0,.06.24c0,.14.22.57.53,1.3s.57,1.34.8,1.86c.05-.11.1-.22.15-.35l.2-.4.49-1.09c.24-.52.38-.85.42-1a.83.83,0,0,0,.06-.28A.53.53,0,0,0,327,89a1.3,1.3,0,0,0-.64-.17s-.08,0-.08-.13,0-.13.08-.13Z"/><path d="M390.33,41.78l-.48-1.93v-.06a.12.12,0,0,1,.1-.13l.07,0a.14.14,0,0,1,.13.09,3.13,3.13,0,0,0,2.59,1.76,1.07,1.07,0,0,0,.81-.26.83.83,0,0,0,.26-.64.72.72,0,0,0-.17-.48,1.13,1.13,0,0,0-.48-.36,10.61,10.61,0,0,0-1.08-.37l-.57-.18a3.49,3.49,0,0,1-.45-.18,2,2,0,0,1-.73-.61,1.46,1.46,0,0,1-.27-.88,1.75,1.75,0,0,1,.24-.89A1.83,1.83,0,0,1,391,36a2.14,2.14,0,0,1,1-.25,3.2,3.2,0,0,1,.65.06l.72.17a1.7,1.7,0,0,0,.35.09A.55.55,0,0,0,394,36a1,1,0,0,0,.25-.21c.06-.08.1-.07.12,0l.49,1.69v.07a.14.14,0,0,1-.09.12.19.19,0,0,1-.1,0,.15.15,0,0,1-.12-.07,3.12,3.12,0,0,0-1.25-1.16A3,3,0,0,0,392,36.1a.9.9,0,0,0-.73.26.75.75,0,0,0-.22.51q0,.43.66.75c.2.08.49.19.88.31a10.87,10.87,0,0,1,1.28.47,2.18,2.18,0,0,1,.83.66,1.47,1.47,0,0,1,.32,1,1.61,1.61,0,0,1-.62,1.36,2.51,2.51,0,0,1-1.59.49,3.34,3.34,0,0,1-.65-.06l-.71-.17a2.56,2.56,0,0,0-.5-.11.71.71,0,0,0-.52.26C390.4,41.87,390.36,41.86,390.33,41.78Z"/><path d="M395.9,41.72s-.08,0-.08-.14,0-.14.08-.14H396a1,1,0,0,0,.54-.11.53.53,0,0,0,.2-.49V37.15a.61.61,0,0,0-.17-.51.93.93,0,0,0-.57-.15c-.07,0-.1-.06-.1-.18s0-.09.07-.1l2.22-.44h0c.06,0,.09,0,.09.08v5c0,.25.06.41.19.49a1.1,1.1,0,0,0,.55.11h.13c.06,0,.09.05.09.14s0,.14-.09.14Zm.9-7.4a.93.93,0,0,1-.27-.66.95.95,0,0,1,1.61-.68.91.91,0,0,1,.28.68.9.9,0,0,1-.28.66,1,1,0,0,1-1.34,0Z"/><path d="M407,41.44q.09,0,.09.15c0,.09,0,.13-.09.13h-3.14c-.06,0-.08,0-.08-.13s0-.15.08-.15H404a.83.83,0,0,0,.49-.11c.12-.08.17-.24.17-.49q0-1.19,0-2.07,0-.63,0-1.08a2.18,2.18,0,0,0-.24-1,.76.76,0,0,0-.72-.36c-.48,0-.91.33-1.28,1v3.52c0,.25.05.41.17.49a.86.86,0,0,0,.5.11h.13q.09,0,.09.15c0,.09,0,.13-.09.13h-3.15c-.07,0-.1,0-.1-.13s0-.15.1-.15h.12a.86.86,0,0,0,.5-.11.58.58,0,0,0,.17-.49V37.15a.62.62,0,0,0-.17-.52,1,1,0,0,0-.56-.14c-.08,0-.11-.07-.11-.19a.08.08,0,0,1,.07-.09l2-.39.26,0h0c.06,0,.09,0,.09.08v.95a2.49,2.49,0,0,1,.78-.77,1.9,1.9,0,0,1,1-.29,2,2,0,0,1,1.09.27,1.77,1.77,0,0,1,.67.69,2,2,0,0,1,.23.89v3.25a.58.58,0,0,0,.17.49.86.86,0,0,0,.5.11Z"/><path d="M409.45,41.54a2.83,2.83,0,0,1-1.14-1,3,3,0,0,1-.44-1.65,3.24,3.24,0,0,1,.35-1.47,3,3,0,0,1,1-1.2,2.92,2.92,0,0,1,1.66-.47,3.58,3.58,0,0,1,1.42.25,1.83,1.83,0,0,1,.78.59,1.16,1.16,0,0,1,.23.62.72.72,0,0,1-.2.52.63.63,0,0,1-.46.21.73.73,0,0,1-.52-.2,1.9,1.9,0,0,1-.39-.55,4.89,4.89,0,0,0-.49-.83.64.64,0,0,0-.53-.27c-.36,0-.65.25-.88.74a4.76,4.76,0,0,0-.35,2,3,3,0,0,0,.5,1.91,1.51,1.51,0,0,0,1.21.61,2.11,2.11,0,0,0,1.84-1,.12.12,0,0,1,.09-.06l.09,0a.11.11,0,0,1,.08.1.15.15,0,0,1,0,.08,3,3,0,0,1-.95,1,2.72,2.72,0,0,1-1.5.41A3.3,3.3,0,0,1,409.45,41.54Z"/><path d="M419.88,40.3v.08a2.84,2.84,0,0,1-.9,1,2.53,2.53,0,0,1-1.53.46,3.16,3.16,0,0,1-1.62-.42,2.81,2.81,0,0,1-1.13-1.11,2.91,2.91,0,0,1-.4-1.5,3.19,3.19,0,0,1,.35-1.45,3,3,0,0,1,1-1.19,2.79,2.79,0,0,1,1.62-.47,2.62,2.62,0,0,1,1.22.3,2.66,2.66,0,0,1,.94.86,3.07,3.07,0,0,1,.48,1.32v0c0,.06,0,.08-.09.08l-3.89,0c0,.08,0,.21,0,.41a3.38,3.38,0,0,0,.45,1.77,1.52,1.52,0,0,0,1.39.75,2.15,2.15,0,0,0,1.83-1.06.14.14,0,0,1,.11-.06l.07,0A.17.17,0,0,1,419.88,40.3Zm-3.37-3.86a2.55,2.55,0,0,0-.51,1.5l2.37,0v-.23A2,2,0,0,0,418,36.5a.92.92,0,0,0-.78-.44A1.08,1.08,0,0,0,416.51,36.44Z"/><path d="M430.37,40.54l-.28,1.1a.1.1,0,0,1-.11.08h-5.61a.14.14,0,0,1-.13-.07l0-.07a.13.13,0,0,1,0-.12,5.62,5.62,0,0,1,.69-1.26,14.05,14.05,0,0,1,.9-1.1c.29-.31.69-.72,1.19-1.22s.8-.82,1-1.1a3.29,3.29,0,0,0,.52-.87,2.78,2.78,0,0,0,.18-1,1.74,1.74,0,0,0-.43-1.26,1.59,1.59,0,0,0-1.21-.44,1.94,1.94,0,0,0-.93.21.68.68,0,0,0-.38.6.43.43,0,0,0,.08.29,1.35,1.35,0,0,0,.24.25,1.73,1.73,0,0,1,.27.3.64.64,0,0,1,.09.36.78.78,0,0,1-.26.63,1,1,0,0,1-.67.22.88.88,0,0,1-.44-.13,1.16,1.16,0,0,1-.38-.41,1.2,1.2,0,0,1-.16-.61,1.76,1.76,0,0,1,.36-1,2.55,2.55,0,0,1,1-.8,3.35,3.35,0,0,1,1.48-.31A4.17,4.17,0,0,1,429,33a2.35,2.35,0,0,1,1.08.84,2.19,2.19,0,0,1,.39,1.29,2.27,2.27,0,0,1-.31,1.19,3,3,0,0,1-.74.83,13,13,0,0,1-1.22.8l-.71.43a6.67,6.67,0,0,0-1.16.9,8.69,8.69,0,0,0-.88,1h1.92a8.8,8.8,0,0,0,1.56-.11,2,2,0,0,0,.89-.38,2.72,2.72,0,0,0,.63-.85.12.12,0,0,1,.09-.06.12.12,0,0,1,.07,0l.08,0a.06.06,0,0,1,0,.06l0,.09C430.67,39.41,430.55,39.87,430.37,40.54Z"/><path d="M433.63,41.35a3.68,3.68,0,0,1-1.28-1.56,6.5,6.5,0,0,1,0-5,3.8,3.8,0,0,1,1.28-1.56,2.78,2.78,0,0,1,3.24,0,3.88,3.88,0,0,1,1.28,1.56,6.62,6.62,0,0,1,0,5,3.75,3.75,0,0,1-1.28,1.56,2.74,2.74,0,0,1-3.24,0Zm2.84-.93a8.75,8.75,0,0,0,.42-3.13,8.69,8.69,0,0,0-.42-3.12c-.28-.69-.69-1-1.22-1-1.1,0-1.65,1.38-1.65,4.15s.55,4.17,1.65,4.17C435.78,41.46,436.19,41.11,436.47,40.42Z"/><path d="M446,40.54l-.28,1.1s0,.08-.1.08H440a.11.11,0,0,1-.12-.07l0-.07a.24.24,0,0,1,0-.12,5.67,5.67,0,0,1,.7-1.26,12.09,12.09,0,0,1,.89-1.1c.3-.31.69-.72,1.2-1.22s.8-.82,1-1.1a3.33,3.33,0,0,0,.53-.87,2.78,2.78,0,0,0,.18-1,1.74,1.74,0,0,0-.44-1.26,1.58,1.58,0,0,0-1.21-.44,1.87,1.87,0,0,0-.92.21.68.68,0,0,0-.39.6.5.5,0,0,0,.08.29,1.46,1.46,0,0,0,.25.25,1.73,1.73,0,0,1,.27.3.64.64,0,0,1,.09.36.79.79,0,0,1-.27.63,1,1,0,0,1-.67.22.85.85,0,0,1-.43-.13,1.16,1.16,0,0,1-.38-.41,1.11,1.11,0,0,1-.16-.61,1.76,1.76,0,0,1,.36-1,2.55,2.55,0,0,1,1-.8,3.31,3.31,0,0,1,1.47-.31,4.14,4.14,0,0,1,1.64.3,2.38,2.38,0,0,1,1.09.84,2.44,2.44,0,0,1,.08,2.48,3.16,3.16,0,0,1-.75.83,11.81,11.81,0,0,1-1.22.8l-.7.43a6.4,6.4,0,0,0-1.17.9,9.66,9.66,0,0,0-.87,1H443a8.8,8.8,0,0,0,1.56-.11,2,2,0,0,0,.88-.38,2.73,2.73,0,0,0,.64-.85.09.09,0,0,1,.08-.06.15.15,0,0,1,.08,0l.07,0a.06.06,0,0,1,0,.06l0,.09C446.3,39.41,446.18,39.87,446,40.54Z"/><path d="M453.79,40.54l-.28,1.1s0,.08-.11.08h-5.61a.11.11,0,0,1-.12-.07l0-.07a.24.24,0,0,1,0-.12,5.3,5.3,0,0,1,.7-1.26,12.09,12.09,0,0,1,.89-1.1c.29-.31.69-.72,1.2-1.22s.79-.82,1-1.1a3.29,3.29,0,0,0,.52-.87,2.78,2.78,0,0,0,.18-1,1.74,1.74,0,0,0-.43-1.26,1.59,1.59,0,0,0-1.21-.44,1.87,1.87,0,0,0-.92.21.68.68,0,0,0-.39.6.5.5,0,0,0,.08.29,1.16,1.16,0,0,0,.25.25,1.73,1.73,0,0,1,.27.3.64.64,0,0,1,.09.36.79.79,0,0,1-.27.63,1,1,0,0,1-.67.22.82.82,0,0,1-.43-.13,1.28,1.28,0,0,1-.39-.41,1.2,1.2,0,0,1-.15-.61,1.76,1.76,0,0,1,.36-1,2.49,2.49,0,0,1,1-.8,3.31,3.31,0,0,1,1.47-.31,4.14,4.14,0,0,1,1.64.3,2.38,2.38,0,0,1,1.09.84,2.25,2.25,0,0,1,.38,1.29,2.18,2.18,0,0,1-.31,1.19,3,3,0,0,1-.74.83,11.81,11.81,0,0,1-1.22.8l-.71.43a6.67,6.67,0,0,0-1.16.9,11.07,11.07,0,0,0-.88,1h1.92a8.65,8.65,0,0,0,1.56-.11,2,2,0,0,0,.89-.38,2.73,2.73,0,0,0,.64-.85.09.09,0,0,1,.08-.06.11.11,0,0,1,.07,0l.08,0a.06.06,0,0,1,0,.06l0,.09C454.09,39.41,454,39.87,453.79,40.54Z"/></g></g></svg>